 <svg width="1em" height="1em" version="1.1" xmlns="http://www.w3.org/2000/svg" xmlns:xlink="http://www.w3.org/1999/xlink" fill="currentColor" viewBox="0 0 215.455 215.455" xml:space="preserve">
            <path  d="M107.728,0.001C48.325,0.001,0,48.329,0,107.732c0.005,59.397,48.332,107.722,107.728,107.722
            c59.401,0,107.728-48.324,107.728-107.723C215.455,48.329,167.129,0.001,107.728,0.001z M107.728,15.001
            c22.021,0,42.269,7.721,58.192,20.592L35.593,165.919C22.724,149.997,15.002,129.75,15,107.731
            C15,56.6,56.598,15.001,107.728,15.001z M107.728,200.454c-23.718,0-45.381-8.956-61.797-23.658L176.796,45.931
            c14.703,16.416,23.659,38.081,23.659,61.801C200.455,158.859,158.857,200.454,107.728,200.454z"/>
          </svg>
         